<mxfile host="app.diagrams.net" agent="Mozilla/5.0 (Macintosh; Intel Mac OS X 10_15_7) AppleWebKit/537.36 (KHTML, like Gecko) Chrome/131.0.0.0 Safari/537.36" version="26.0.2">
  <diagram name="Page-1" id="qKSaUX1S-o1MBzgwaDjR">
    <mxGraphModel dx="5607" dy="3899" grid="1" gridSize="10" guides="1" tooltips="1" connect="1" arrows="1" fold="1" page="1" pageScale="1" pageWidth="827" pageHeight="1169" math="0" shadow="0">
      <root>
        <mxCell id="0" />
        <mxCell id="1" parent="0" />
        <mxCell id="58wlX_0gQZttUMXgiQfA-1" value="Objects&lt;div&gt;&lt;br&gt;&lt;/div&gt;&lt;div&gt;1. Vehicle&lt;/div&gt;&lt;div&gt;2. VehicleInventoryManagement&lt;/div&gt;&lt;div&gt;3. Store&lt;/div&gt;&lt;div&gt;4. Location&lt;/div&gt;&lt;div&gt;5. User&lt;/div&gt;&lt;div&gt;6. Reserve&lt;/div&gt;&lt;div&gt;7. Bill&lt;/div&gt;&lt;div&gt;8. Payment&amp;nbsp;&lt;/div&gt;" style="rounded=0;whiteSpace=wrap;html=1;" vertex="1" parent="1">
          <mxGeometry y="-120" width="200" height="180" as="geometry" />
        </mxCell>
        <mxCell id="58wlX_0gQZttUMXgiQfA-18" style="edgeStyle=orthogonalEdgeStyle;rounded=0;orthogonalLoop=1;jettySize=auto;html=1;entryX=0.5;entryY=0;entryDx=0;entryDy=0;" edge="1" parent="1" source="58wlX_0gQZttUMXgiQfA-2" target="58wlX_0gQZttUMXgiQfA-12">
          <mxGeometry relative="1" as="geometry" />
        </mxCell>
        <mxCell id="58wlX_0gQZttUMXgiQfA-19" style="edgeStyle=orthogonalEdgeStyle;rounded=0;orthogonalLoop=1;jettySize=auto;html=1;entryX=0.5;entryY=0;entryDx=0;entryDy=0;" edge="1" parent="1" source="58wlX_0gQZttUMXgiQfA-2" target="58wlX_0gQZttUMXgiQfA-8">
          <mxGeometry relative="1" as="geometry" />
        </mxCell>
        <mxCell id="58wlX_0gQZttUMXgiQfA-2" value="Vehicle" style="swimlane;fontStyle=1;align=center;verticalAlign=top;childLayout=stackLayout;horizontal=1;startSize=26;horizontalStack=0;resizeParent=1;resizeParentMax=0;resizeLast=0;collapsible=1;marginBottom=0;whiteSpace=wrap;html=1;" vertex="1" parent="1">
          <mxGeometry x="254" y="230" width="160" height="200" as="geometry" />
        </mxCell>
        <mxCell id="58wlX_0gQZttUMXgiQfA-3" value="+ id: String&lt;div&gt;+ vechileNumber : String&lt;/div&gt;&lt;div&gt;+ vechileName: String&lt;/div&gt;&lt;div&gt;+ dailyRentalCost : Int&lt;/div&gt;&lt;div&gt;+ status: VehicleStatus&lt;/div&gt;&lt;div&gt;+&amp;nbsp; vechileModel: String&lt;/div&gt;&lt;div&gt;+ vehicleType: VehicleType&lt;/div&gt;" style="text;strokeColor=none;fillColor=none;align=left;verticalAlign=top;spacingLeft=4;spacingRight=4;overflow=hidden;rotatable=0;points=[[0,0.5],[1,0.5]];portConstraint=eastwest;whiteSpace=wrap;html=1;" vertex="1" parent="58wlX_0gQZttUMXgiQfA-2">
          <mxGeometry y="26" width="160" height="124" as="geometry" />
        </mxCell>
        <mxCell id="58wlX_0gQZttUMXgiQfA-4" value="" style="line;strokeWidth=1;fillColor=none;align=left;verticalAlign=middle;spacingTop=-1;spacingLeft=3;spacingRight=3;rotatable=0;labelPosition=right;points=[];portConstraint=eastwest;strokeColor=inherit;" vertex="1" parent="58wlX_0gQZttUMXgiQfA-2">
          <mxGeometry y="150" width="160" height="8" as="geometry" />
        </mxCell>
        <mxCell id="58wlX_0gQZttUMXgiQfA-5" value="+ getter&lt;div&gt;+ setters&lt;/div&gt;" style="text;strokeColor=none;fillColor=none;align=left;verticalAlign=top;spacingLeft=4;spacingRight=4;overflow=hidden;rotatable=0;points=[[0,0.5],[1,0.5]];portConstraint=eastwest;whiteSpace=wrap;html=1;" vertex="1" parent="58wlX_0gQZttUMXgiQfA-2">
          <mxGeometry y="158" width="160" height="42" as="geometry" />
        </mxCell>
        <mxCell id="58wlX_0gQZttUMXgiQfA-6" value="VehicleStatus{&lt;div&gt;ACTIVE,INACTIVE&lt;/div&gt;&lt;div&gt;}&lt;/div&gt;" style="html=1;whiteSpace=wrap;" vertex="1" parent="1">
          <mxGeometry x="-420" y="256" width="110" height="50" as="geometry" />
        </mxCell>
        <mxCell id="58wlX_0gQZttUMXgiQfA-7" style="edgeStyle=orthogonalEdgeStyle;rounded=0;orthogonalLoop=1;jettySize=auto;html=1;entryX=-0.012;entryY=0.589;entryDx=0;entryDy=0;entryPerimeter=0;" edge="1" parent="1" source="58wlX_0gQZttUMXgiQfA-6" target="58wlX_0gQZttUMXgiQfA-3">
          <mxGeometry relative="1" as="geometry" />
        </mxCell>
        <mxCell id="58wlX_0gQZttUMXgiQfA-8" value="CarVehicle" style="swimlane;fontStyle=1;align=center;verticalAlign=top;childLayout=stackLayout;horizontal=1;startSize=26;horizontalStack=0;resizeParent=1;resizeParentMax=0;resizeLast=0;collapsible=1;marginBottom=0;whiteSpace=wrap;html=1;" vertex="1" parent="1">
          <mxGeometry x="100" y="560" width="160" height="34" as="geometry" />
        </mxCell>
        <mxCell id="58wlX_0gQZttUMXgiQfA-10" value="" style="line;strokeWidth=1;fillColor=none;align=left;verticalAlign=middle;spacingTop=-1;spacingLeft=3;spacingRight=3;rotatable=0;labelPosition=right;points=[];portConstraint=eastwest;strokeColor=inherit;" vertex="1" parent="58wlX_0gQZttUMXgiQfA-8">
          <mxGeometry y="26" width="160" height="8" as="geometry" />
        </mxCell>
        <mxCell id="58wlX_0gQZttUMXgiQfA-12" value="BikeVehicle" style="swimlane;fontStyle=1;align=center;verticalAlign=top;childLayout=stackLayout;horizontal=1;startSize=26;horizontalStack=0;resizeParent=1;resizeParentMax=0;resizeLast=0;collapsible=1;marginBottom=0;whiteSpace=wrap;html=1;" vertex="1" parent="1">
          <mxGeometry x="310" y="560" width="160" height="34" as="geometry" />
        </mxCell>
        <mxCell id="58wlX_0gQZttUMXgiQfA-13" value="" style="line;strokeWidth=1;fillColor=none;align=left;verticalAlign=middle;spacingTop=-1;spacingLeft=3;spacingRight=3;rotatable=0;labelPosition=right;points=[];portConstraint=eastwest;strokeColor=inherit;" vertex="1" parent="58wlX_0gQZttUMXgiQfA-12">
          <mxGeometry y="26" width="160" height="8" as="geometry" />
        </mxCell>
        <mxCell id="58wlX_0gQZttUMXgiQfA-14" value="VehicleType{&lt;div&gt;CAR,BIKE&lt;/div&gt;&lt;div&gt;}&lt;/div&gt;" style="html=1;whiteSpace=wrap;" vertex="1" parent="1">
          <mxGeometry x="-700" y="380" width="110" height="50" as="geometry" />
        </mxCell>
        <mxCell id="58wlX_0gQZttUMXgiQfA-16" style="edgeStyle=orthogonalEdgeStyle;rounded=0;orthogonalLoop=1;jettySize=auto;html=1;exitX=1;exitY=0.5;exitDx=0;exitDy=0;entryX=0.006;entryY=0.806;entryDx=0;entryDy=0;entryPerimeter=0;" edge="1" parent="1" source="58wlX_0gQZttUMXgiQfA-14" target="58wlX_0gQZttUMXgiQfA-3">
          <mxGeometry relative="1" as="geometry" />
        </mxCell>
        <mxCell id="58wlX_0gQZttUMXgiQfA-20" value="VehicleInventoryManagment" style="swimlane;fontStyle=1;align=center;verticalAlign=top;childLayout=stackLayout;horizontal=1;startSize=26;horizontalStack=0;resizeParent=1;resizeParentMax=0;resizeLast=0;collapsible=1;marginBottom=0;whiteSpace=wrap;html=1;" vertex="1" parent="1">
          <mxGeometry x="520" y="220" width="200" height="120" as="geometry" />
        </mxCell>
        <mxCell id="58wlX_0gQZttUMXgiQfA-21" value="+ vehicles: List&amp;lt;Vehicle&amp;gt;" style="text;strokeColor=none;fillColor=none;align=left;verticalAlign=top;spacingLeft=4;spacingRight=4;overflow=hidden;rotatable=0;points=[[0,0.5],[1,0.5]];portConstraint=eastwest;whiteSpace=wrap;html=1;" vertex="1" parent="58wlX_0gQZttUMXgiQfA-20">
          <mxGeometry y="26" width="200" height="26" as="geometry" />
        </mxCell>
        <mxCell id="58wlX_0gQZttUMXgiQfA-22" value="" style="line;strokeWidth=1;fillColor=none;align=left;verticalAlign=middle;spacingTop=-1;spacingLeft=3;spacingRight=3;rotatable=0;labelPosition=right;points=[];portConstraint=eastwest;strokeColor=inherit;" vertex="1" parent="58wlX_0gQZttUMXgiQfA-20">
          <mxGeometry y="52" width="200" height="8" as="geometry" />
        </mxCell>
        <mxCell id="58wlX_0gQZttUMXgiQfA-23" value="+ getter&lt;div&gt;+setter&lt;/div&gt;&lt;div&gt;&lt;br&gt;&lt;/div&gt;" style="text;strokeColor=none;fillColor=none;align=left;verticalAlign=top;spacingLeft=4;spacingRight=4;overflow=hidden;rotatable=0;points=[[0,0.5],[1,0.5]];portConstraint=eastwest;whiteSpace=wrap;html=1;" vertex="1" parent="58wlX_0gQZttUMXgiQfA-20">
          <mxGeometry y="60" width="200" height="60" as="geometry" />
        </mxCell>
        <mxCell id="58wlX_0gQZttUMXgiQfA-25" style="edgeStyle=orthogonalEdgeStyle;rounded=0;orthogonalLoop=1;jettySize=auto;html=1;entryX=1.019;entryY=0.581;entryDx=0;entryDy=0;entryPerimeter=0;" edge="1" parent="1" source="58wlX_0gQZttUMXgiQfA-23" target="58wlX_0gQZttUMXgiQfA-3">
          <mxGeometry relative="1" as="geometry" />
        </mxCell>
        <mxCell id="58wlX_0gQZttUMXgiQfA-26" value="has-a" style="edgeLabel;html=1;align=center;verticalAlign=middle;resizable=0;points=[];" vertex="1" connectable="0" parent="58wlX_0gQZttUMXgiQfA-25">
          <mxGeometry x="0.1078" y="1" relative="1" as="geometry">
            <mxPoint as="offset" />
          </mxGeometry>
        </mxCell>
        <mxCell id="58wlX_0gQZttUMXgiQfA-27" value="Store" style="swimlane;fontStyle=1;align=center;verticalAlign=top;childLayout=stackLayout;horizontal=1;startSize=26;horizontalStack=0;resizeParent=1;resizeParentMax=0;resizeLast=0;collapsible=1;marginBottom=0;whiteSpace=wrap;html=1;" vertex="1" parent="1">
          <mxGeometry x="520" y="450" width="280" height="144" as="geometry" />
        </mxCell>
        <mxCell id="58wlX_0gQZttUMXgiQfA-28" value="+ storeId: String&lt;div style=&quot;text-align: center;&quot;&gt;+vehicleInvMangm: VehicleInventoryManagement&lt;/div&gt;&lt;div style=&quot;&quot;&gt;+ location: Location&lt;/div&gt;&lt;div style=&quot;&quot;&gt;+ reservedVehicles: List&amp;lt;ReservedVehicle&amp;gt;&lt;/div&gt;&lt;div style=&quot;text-align: center;&quot;&gt;&lt;br&gt;&lt;/div&gt;" style="text;strokeColor=none;fillColor=none;align=left;verticalAlign=top;spacingLeft=4;spacingRight=4;overflow=hidden;rotatable=0;points=[[0,0.5],[1,0.5]];portConstraint=eastwest;whiteSpace=wrap;html=1;" vertex="1" parent="58wlX_0gQZttUMXgiQfA-27">
          <mxGeometry y="26" width="280" height="84" as="geometry" />
        </mxCell>
        <mxCell id="58wlX_0gQZttUMXgiQfA-29" value="" style="line;strokeWidth=1;fillColor=none;align=left;verticalAlign=middle;spacingTop=-1;spacingLeft=3;spacingRight=3;rotatable=0;labelPosition=right;points=[];portConstraint=eastwest;strokeColor=inherit;" vertex="1" parent="58wlX_0gQZttUMXgiQfA-27">
          <mxGeometry y="110" width="280" height="8" as="geometry" />
        </mxCell>
        <mxCell id="58wlX_0gQZttUMXgiQfA-30" value="+ method(type): type" style="text;strokeColor=none;fillColor=none;align=left;verticalAlign=top;spacingLeft=4;spacingRight=4;overflow=hidden;rotatable=0;points=[[0,0.5],[1,0.5]];portConstraint=eastwest;whiteSpace=wrap;html=1;" vertex="1" parent="58wlX_0gQZttUMXgiQfA-27">
          <mxGeometry y="118" width="280" height="26" as="geometry" />
        </mxCell>
        <mxCell id="58wlX_0gQZttUMXgiQfA-31" value="Location" style="swimlane;fontStyle=1;align=center;verticalAlign=top;childLayout=stackLayout;horizontal=1;startSize=26;horizontalStack=0;resizeParent=1;resizeParentMax=0;resizeLast=0;collapsible=1;marginBottom=0;whiteSpace=wrap;html=1;" vertex="1" parent="1">
          <mxGeometry x="860" y="700" width="160" height="160" as="geometry" />
        </mxCell>
        <mxCell id="58wlX_0gQZttUMXgiQfA-32" value="+ locationId: String&lt;div&gt;+ address: String&lt;/div&gt;&lt;div&gt;+ pincode: Int&lt;/div&gt;&lt;div&gt;+ state: String&lt;/div&gt;" style="text;strokeColor=none;fillColor=none;align=left;verticalAlign=top;spacingLeft=4;spacingRight=4;overflow=hidden;rotatable=0;points=[[0,0.5],[1,0.5]];portConstraint=eastwest;whiteSpace=wrap;html=1;" vertex="1" parent="58wlX_0gQZttUMXgiQfA-31">
          <mxGeometry y="26" width="160" height="84" as="geometry" />
        </mxCell>
        <mxCell id="58wlX_0gQZttUMXgiQfA-33" value="" style="line;strokeWidth=1;fillColor=none;align=left;verticalAlign=middle;spacingTop=-1;spacingLeft=3;spacingRight=3;rotatable=0;labelPosition=right;points=[];portConstraint=eastwest;strokeColor=inherit;" vertex="1" parent="58wlX_0gQZttUMXgiQfA-31">
          <mxGeometry y="110" width="160" height="8" as="geometry" />
        </mxCell>
        <mxCell id="58wlX_0gQZttUMXgiQfA-34" value="+ getter&lt;div&gt;+setter&lt;/div&gt;" style="text;strokeColor=none;fillColor=none;align=left;verticalAlign=top;spacingLeft=4;spacingRight=4;overflow=hidden;rotatable=0;points=[[0,0.5],[1,0.5]];portConstraint=eastwest;whiteSpace=wrap;html=1;" vertex="1" parent="58wlX_0gQZttUMXgiQfA-31">
          <mxGeometry y="118" width="160" height="42" as="geometry" />
        </mxCell>
        <mxCell id="58wlX_0gQZttUMXgiQfA-58" style="edgeStyle=orthogonalEdgeStyle;rounded=0;orthogonalLoop=1;jettySize=auto;html=1;entryX=0.5;entryY=0;entryDx=0;entryDy=0;" edge="1" parent="1" source="58wlX_0gQZttUMXgiQfA-35" target="58wlX_0gQZttUMXgiQfA-2">
          <mxGeometry relative="1" as="geometry" />
        </mxCell>
        <mxCell id="58wlX_0gQZttUMXgiQfA-59" value="has-a" style="edgeLabel;html=1;align=center;verticalAlign=middle;resizable=0;points=[];" vertex="1" connectable="0" parent="58wlX_0gQZttUMXgiQfA-58">
          <mxGeometry x="-0.8372" relative="1" as="geometry">
            <mxPoint as="offset" />
          </mxGeometry>
        </mxCell>
        <mxCell id="58wlX_0gQZttUMXgiQfA-35" value="ReservedVehicle" style="swimlane;fontStyle=1;align=center;verticalAlign=top;childLayout=stackLayout;horizontal=1;startSize=26;horizontalStack=0;resizeParent=1;resizeParentMax=0;resizeLast=0;collapsible=1;marginBottom=0;whiteSpace=wrap;html=1;" vertex="1" parent="1">
          <mxGeometry x="-680" y="680" width="230" height="174" as="geometry" />
        </mxCell>
        <mxCell id="58wlX_0gQZttUMXgiQfA-36" value="+ reservationId: String&lt;div&gt;+ vehicle: Vehicle&lt;/div&gt;&lt;div&gt;+ user:User&lt;/div&gt;&lt;div&gt;+pickupLocation:Location&lt;/div&gt;&lt;div&gt;+dropLocation:Location&lt;/div&gt;&lt;div&gt;+reservationStatus:ReservattionStatus&lt;/div&gt;" style="text;strokeColor=none;fillColor=none;align=left;verticalAlign=top;spacingLeft=4;spacingRight=4;overflow=hidden;rotatable=0;points=[[0,0.5],[1,0.5]];portConstraint=eastwest;whiteSpace=wrap;html=1;" vertex="1" parent="58wlX_0gQZttUMXgiQfA-35">
          <mxGeometry y="26" width="230" height="114" as="geometry" />
        </mxCell>
        <mxCell id="58wlX_0gQZttUMXgiQfA-37" value="" style="line;strokeWidth=1;fillColor=none;align=left;verticalAlign=middle;spacingTop=-1;spacingLeft=3;spacingRight=3;rotatable=0;labelPosition=right;points=[];portConstraint=eastwest;strokeColor=inherit;" vertex="1" parent="58wlX_0gQZttUMXgiQfA-35">
          <mxGeometry y="140" width="230" height="8" as="geometry" />
        </mxCell>
        <mxCell id="58wlX_0gQZttUMXgiQfA-38" value="+ method(type): type" style="text;strokeColor=none;fillColor=none;align=left;verticalAlign=top;spacingLeft=4;spacingRight=4;overflow=hidden;rotatable=0;points=[[0,0.5],[1,0.5]];portConstraint=eastwest;whiteSpace=wrap;html=1;" vertex="1" parent="58wlX_0gQZttUMXgiQfA-35">
          <mxGeometry y="148" width="230" height="26" as="geometry" />
        </mxCell>
        <mxCell id="58wlX_0gQZttUMXgiQfA-39" value="User" style="swimlane;fontStyle=1;align=center;verticalAlign=top;childLayout=stackLayout;horizontal=1;startSize=26;horizontalStack=0;resizeParent=1;resizeParentMax=0;resizeLast=0;collapsible=1;marginBottom=0;whiteSpace=wrap;html=1;" vertex="1" parent="1">
          <mxGeometry x="540" y="718" width="160" height="124" as="geometry" />
        </mxCell>
        <mxCell id="58wlX_0gQZttUMXgiQfA-40" value="+ userId: String&lt;div&gt;+ userName: String&lt;/div&gt;&lt;div&gt;+ drivingLicense: String&lt;/div&gt;" style="text;strokeColor=none;fillColor=none;align=left;verticalAlign=top;spacingLeft=4;spacingRight=4;overflow=hidden;rotatable=0;points=[[0,0.5],[1,0.5]];portConstraint=eastwest;whiteSpace=wrap;html=1;" vertex="1" parent="58wlX_0gQZttUMXgiQfA-39">
          <mxGeometry y="26" width="160" height="64" as="geometry" />
        </mxCell>
        <mxCell id="58wlX_0gQZttUMXgiQfA-41" value="" style="line;strokeWidth=1;fillColor=none;align=left;verticalAlign=middle;spacingTop=-1;spacingLeft=3;spacingRight=3;rotatable=0;labelPosition=right;points=[];portConstraint=eastwest;strokeColor=inherit;" vertex="1" parent="58wlX_0gQZttUMXgiQfA-39">
          <mxGeometry y="90" width="160" height="8" as="geometry" />
        </mxCell>
        <mxCell id="58wlX_0gQZttUMXgiQfA-42" value="+ method(type): type" style="text;strokeColor=none;fillColor=none;align=left;verticalAlign=top;spacingLeft=4;spacingRight=4;overflow=hidden;rotatable=0;points=[[0,0.5],[1,0.5]];portConstraint=eastwest;whiteSpace=wrap;html=1;" vertex="1" parent="58wlX_0gQZttUMXgiQfA-39">
          <mxGeometry y="98" width="160" height="26" as="geometry" />
        </mxCell>
        <mxCell id="58wlX_0gQZttUMXgiQfA-45" value="Bill" style="swimlane;fontStyle=1;align=center;verticalAlign=top;childLayout=stackLayout;horizontal=1;startSize=26;horizontalStack=0;resizeParent=1;resizeParentMax=0;resizeLast=0;collapsible=1;marginBottom=0;whiteSpace=wrap;html=1;" vertex="1" parent="1">
          <mxGeometry x="320" y="910" width="160" height="134" as="geometry" />
        </mxCell>
        <mxCell id="58wlX_0gQZttUMXgiQfA-46" value="+ reservation: Reservation&lt;div&gt;+ billAmount: Double&lt;/div&gt;" style="text;strokeColor=none;fillColor=none;align=left;verticalAlign=top;spacingLeft=4;spacingRight=4;overflow=hidden;rotatable=0;points=[[0,0.5],[1,0.5]];portConstraint=eastwest;whiteSpace=wrap;html=1;" vertex="1" parent="58wlX_0gQZttUMXgiQfA-45">
          <mxGeometry y="26" width="160" height="74" as="geometry" />
        </mxCell>
        <mxCell id="58wlX_0gQZttUMXgiQfA-47" value="" style="line;strokeWidth=1;fillColor=none;align=left;verticalAlign=middle;spacingTop=-1;spacingLeft=3;spacingRight=3;rotatable=0;labelPosition=right;points=[];portConstraint=eastwest;strokeColor=inherit;" vertex="1" parent="58wlX_0gQZttUMXgiQfA-45">
          <mxGeometry y="100" width="160" height="8" as="geometry" />
        </mxCell>
        <mxCell id="58wlX_0gQZttUMXgiQfA-48" value="+ method(type): type" style="text;strokeColor=none;fillColor=none;align=left;verticalAlign=top;spacingLeft=4;spacingRight=4;overflow=hidden;rotatable=0;points=[[0,0.5],[1,0.5]];portConstraint=eastwest;whiteSpace=wrap;html=1;" vertex="1" parent="58wlX_0gQZttUMXgiQfA-45">
          <mxGeometry y="108" width="160" height="26" as="geometry" />
        </mxCell>
        <mxCell id="58wlX_0gQZttUMXgiQfA-49" value="Payment" style="swimlane;fontStyle=1;align=center;verticalAlign=top;childLayout=stackLayout;horizontal=1;startSize=26;horizontalStack=0;resizeParent=1;resizeParentMax=0;resizeLast=0;collapsible=1;marginBottom=0;whiteSpace=wrap;html=1;" vertex="1" parent="1">
          <mxGeometry x="600" y="910" width="200" height="140" as="geometry" />
        </mxCell>
        <mxCell id="58wlX_0gQZttUMXgiQfA-50" value="+ id: String&lt;div&gt;+ paymentStatus: PaymentStatus&lt;/div&gt;&lt;div&gt;+ reservationBill:Bill&lt;/div&gt;" style="text;strokeColor=none;fillColor=none;align=left;verticalAlign=top;spacingLeft=4;spacingRight=4;overflow=hidden;rotatable=0;points=[[0,0.5],[1,0.5]];portConstraint=eastwest;whiteSpace=wrap;html=1;" vertex="1" parent="58wlX_0gQZttUMXgiQfA-49">
          <mxGeometry y="26" width="200" height="80" as="geometry" />
        </mxCell>
        <mxCell id="58wlX_0gQZttUMXgiQfA-51" value="" style="line;strokeWidth=1;fillColor=none;align=left;verticalAlign=middle;spacingTop=-1;spacingLeft=3;spacingRight=3;rotatable=0;labelPosition=right;points=[];portConstraint=eastwest;strokeColor=inherit;" vertex="1" parent="58wlX_0gQZttUMXgiQfA-49">
          <mxGeometry y="106" width="200" height="8" as="geometry" />
        </mxCell>
        <mxCell id="58wlX_0gQZttUMXgiQfA-52" value="+ method(type): type" style="text;strokeColor=none;fillColor=none;align=left;verticalAlign=top;spacingLeft=4;spacingRight=4;overflow=hidden;rotatable=0;points=[[0,0.5],[1,0.5]];portConstraint=eastwest;whiteSpace=wrap;html=1;" vertex="1" parent="58wlX_0gQZttUMXgiQfA-49">
          <mxGeometry y="114" width="200" height="26" as="geometry" />
        </mxCell>
        <mxCell id="58wlX_0gQZttUMXgiQfA-53" value="has-a" style="edgeStyle=orthogonalEdgeStyle;rounded=0;orthogonalLoop=1;jettySize=auto;html=1;entryX=0.243;entryY=1.038;entryDx=0;entryDy=0;entryPerimeter=0;" edge="1" parent="1" source="58wlX_0gQZttUMXgiQfA-46" target="58wlX_0gQZttUMXgiQfA-38">
          <mxGeometry relative="1" as="geometry" />
        </mxCell>
        <mxCell id="58wlX_0gQZttUMXgiQfA-54" style="edgeStyle=orthogonalEdgeStyle;rounded=0;orthogonalLoop=1;jettySize=auto;html=1;" edge="1" parent="1" source="58wlX_0gQZttUMXgiQfA-50" target="58wlX_0gQZttUMXgiQfA-46">
          <mxGeometry relative="1" as="geometry" />
        </mxCell>
        <mxCell id="58wlX_0gQZttUMXgiQfA-55" value="has-a" style="edgeLabel;html=1;align=center;verticalAlign=middle;resizable=0;points=[];" vertex="1" connectable="0" parent="58wlX_0gQZttUMXgiQfA-54">
          <mxGeometry x="0.0244" y="-3" relative="1" as="geometry">
            <mxPoint x="3" y="3" as="offset" />
          </mxGeometry>
        </mxCell>
        <mxCell id="58wlX_0gQZttUMXgiQfA-56" style="edgeStyle=orthogonalEdgeStyle;rounded=0;orthogonalLoop=1;jettySize=auto;html=1;entryX=0;entryY=0.5;entryDx=0;entryDy=0;" edge="1" parent="1" source="58wlX_0gQZttUMXgiQfA-36" target="58wlX_0gQZttUMXgiQfA-40">
          <mxGeometry relative="1" as="geometry" />
        </mxCell>
        <mxCell id="58wlX_0gQZttUMXgiQfA-57" value="has-a" style="edgeLabel;html=1;align=center;verticalAlign=middle;resizable=0;points=[];" vertex="1" connectable="0" parent="58wlX_0gQZttUMXgiQfA-56">
          <mxGeometry x="-0.5099" y="1" relative="1" as="geometry">
            <mxPoint as="offset" />
          </mxGeometry>
        </mxCell>
        <mxCell id="58wlX_0gQZttUMXgiQfA-60" style="edgeStyle=orthogonalEdgeStyle;rounded=0;orthogonalLoop=1;jettySize=auto;html=1;entryX=0.5;entryY=0;entryDx=0;entryDy=0;" edge="1" parent="1" source="58wlX_0gQZttUMXgiQfA-36" target="58wlX_0gQZttUMXgiQfA-31">
          <mxGeometry relative="1" as="geometry" />
        </mxCell>
        <mxCell id="58wlX_0gQZttUMXgiQfA-61" value="has-a" style="edgeLabel;html=1;align=center;verticalAlign=middle;resizable=0;points=[];" vertex="1" connectable="0" parent="58wlX_0gQZttUMXgiQfA-60">
          <mxGeometry x="0.459" y="1" relative="1" as="geometry">
            <mxPoint as="offset" />
          </mxGeometry>
        </mxCell>
        <mxCell id="58wlX_0gQZttUMXgiQfA-62" style="edgeStyle=orthogonalEdgeStyle;rounded=0;orthogonalLoop=1;jettySize=auto;html=1;entryX=0.996;entryY=0.167;entryDx=0;entryDy=0;entryPerimeter=0;" edge="1" parent="1" source="58wlX_0gQZttUMXgiQfA-27" target="58wlX_0gQZttUMXgiQfA-36">
          <mxGeometry relative="1" as="geometry" />
        </mxCell>
        <mxCell id="58wlX_0gQZttUMXgiQfA-63" value="Text" style="edgeLabel;html=1;align=center;verticalAlign=middle;resizable=0;points=[];" vertex="1" connectable="0" parent="58wlX_0gQZttUMXgiQfA-62">
          <mxGeometry x="0.2604" relative="1" as="geometry">
            <mxPoint as="offset" />
          </mxGeometry>
        </mxCell>
        <mxCell id="58wlX_0gQZttUMXgiQfA-64" style="edgeStyle=orthogonalEdgeStyle;rounded=0;orthogonalLoop=1;jettySize=auto;html=1;" edge="1" parent="1" source="58wlX_0gQZttUMXgiQfA-28" target="58wlX_0gQZttUMXgiQfA-31">
          <mxGeometry relative="1" as="geometry" />
        </mxCell>
        <mxCell id="58wlX_0gQZttUMXgiQfA-65" value="has-a" style="edgeLabel;html=1;align=center;verticalAlign=middle;resizable=0;points=[];" vertex="1" connectable="0" parent="58wlX_0gQZttUMXgiQfA-64">
          <mxGeometry x="-0.5466" relative="1" as="geometry">
            <mxPoint as="offset" />
          </mxGeometry>
        </mxCell>
      </root>
    </mxGraphModel>
  </diagram>
</mxfile>
